<svg xmlns="http://www.w3.org/2000/svg" xmlns:xlink="http://www.w3.org/1999/xlink" version="1.1" width="170.079pt" height="170.079pt" viewBox="0 0 170.079 170.079">
<defs>
<clipPath id="clip_1">
<path transform="matrix(1,0,0,-1,0,170.079)" d="M0 170.079H170.079V0H0Z"/>
</clipPath>
</defs>
<g id="layer_1" data-name="Layer 1">
<g clip-path="url(#clip_1)">
<path transform="matrix(1,0,0,-1,65.1022,26.804093)" d="M0 0C.625 .964 1.158 2.004 1.889 2.879 7.887 10.055 17.688 12.794 26.642 7.953 28.794 6.789 30.86 5.464 33.02 4.314 37.127 2.127 41.467 .709 46.178 .645 41.741 .136 37.482 .923 33.361 2.503 31.171 3.343 29.032 4.322 26.899 5.3 19.936 8.493 13.209 7.995 6.736 3.996 4.991 2.918 3.377 1.627 1.698 .44 1.281 .145 .847-.126 .42-.407 .28-.272 .14-.136 0 0" fill="#007a60"/>
<path transform="matrix(1,0,0,-1,88.2529,71.52329)" d="M0 0C.551 .812 .937 .588 1.805-.109 3.567-1.523 5.55-2.689 7.538-3.781 8.588-4.358 9.726-3.975 10.305-2.88 10.682-2.165 10.746-1.283 10.971-.396 11.505-.562 12.419-.844 13.507-1.18 12.714-2.772 11.986-4.233 11.241-5.728 7.102-4.583 3.278-2.948 0 0" fill="#007a60"/>
<path transform="matrix(1,0,0,-1,47.8201,112.64839)" d="M0 0-1.33-4.944C-3.081-3.944-4.888-3.444-6.751-3.444V-20.971C-6.751-22.402-6.376-23.596-5.626-24.551H-13.98C-13.594-24.097-13.315-23.591-13.145-23.033-12.974-22.477-12.889-21.789-12.889-20.971V-3.58C-15.367-3.58-17.618-4.217-19.641-5.49L-18.106 0Z" fill="#007a60"/>
<path transform="matrix(1,0,0,-1,59.0725,121.95699)" d="M0 0C.205 .682 .307 1.317 .307 1.909 .307 2.818 .096 3.608-.324 4.279-.745 4.949-1.308 5.433-2.012 5.729-2.535 5.933-3.069 6.035-3.615 6.035V-2.83L-2.967-2.729C-1.421-2.365-.432-1.455 0 0M10.127-15.242H4.535C1.102-12.128-1.558-8.435-3.444-4.16V-11.696C-3.444-13.128-3.081-14.311-2.353-15.242H-10.741C-10.31-14.765-10.008-14.265-9.837-13.742-9.667-13.219-9.582-12.537-9.582-11.696V5.933C-9.582 7.319-9.969 8.444-10.741 9.309H-2.285-1.228C-.955 9.24-.75 9.194-.614 9.172 .522 9.013 1.517 8.751 2.37 8.388 3.222 8.024 3.978 7.547 4.637 6.956 6.023 5.66 6.717 4.092 6.717 2.25 6.717 1.159 6.461 .136 5.95-.818 5.438-1.773 4.683-2.569 3.683-3.205L2.796-3.683C3.864-6.093 5.069-8.286 6.41-10.264 7.501-11.946 8.74-13.605 10.127-15.242" fill="#007a60"/>
<path transform="matrix(1,0,0,-1,120.8792,112.64839)" d="M0 0-.342-.58C-.818-1.512-1.058-2.455-1.058-3.41V-20.8C-1.058-22.073-.898-23.119-.58-23.937L-.308-24.551H-6.82L-16.3-10.604V-21.005C-16.3-22.323-15.937-23.506-15.208-24.551H-23.119C-22.732-24.051-22.466-23.54-22.317-23.017-22.17-22.494-22.096-21.823-22.096-21.005V-3.239L-23.835 0H-17.401L-17.263-.58C-17.033-1.398-16.713-2.103-16.3-2.693L-6.82-16.504V-3.41C-6.82-2.273-7.048-1.33-7.502-.58L-7.911 0Z" fill="#007a60"/>
<path transform="matrix(1,0,0,-1,146.0423,124.8212)" d="M0 0-.409-.75C-.841-1.683-1.057-2.558-1.057-3.376V-6.956C-1.057-8.229-.875-9.377-.512-10.4L-1.772-10.912C-3.273-11.457-4.751-11.866-6.206-12.14-7.661-12.412-9.014-12.549-10.264-12.549-14.15-12.549-17.242-11.435-19.538-9.207-21.834-6.979-22.982-4.013-22.982-.308-22.982 3.353-21.715 6.404-19.18 8.849-16.646 11.292-13.446 12.514-9.581 12.514-7.49 12.514-5.354 12.127-3.171 11.354L-2.318 11.014V5.523C-2.818 6.273-3.535 7.024-4.467 7.774-5.263 8.388-6.075 8.849-6.904 9.155-7.734 9.462-8.559 9.615-9.377 9.615-10.809 9.615-12.1 9.184-13.247 8.319-14.396 7.455-15.242 6.228-15.787 4.637-15.855 4.455-15.952 4.108-16.077 3.597-16.202 3.086-16.287 2.671-16.333 2.353-16.47 1.488-16.537 .682-16.537-.068-16.537-2.842-15.799-5.093-14.321-6.82-12.912-8.479-11.15-9.31-9.036-9.31-8.559-9.31-8.036-9.253-7.468-9.139L-7.194-9.07-6.99-9.002V-3.342C-6.99-2.842-7.115-2.229-7.365-1.501-7.456-1.251-7.553-1.023-7.655-.818-7.757-.614-7.91-.341-8.115 0Z" fill="#007a60"/>
<path transform="matrix(1,0,0,-1,35.3171,139.5862)" d="M0 0-.537-1.179-.911-1.073C-1.352-.971-1.77-.92-2.166-.92V-2.923H-.297L-.93-4.016-1.217-3.929C-1.377-3.878-1.539-3.838-1.701-3.81-1.864-3.78-2.019-3.767-2.166-3.767V-5.942C-2.166-6.229-2.105-6.498-1.984-6.747L-1.898-6.9H-3.843C-3.754-6.76-3.688-6.613-3.647-6.46-3.605-6.306-3.584-6.131-3.584-5.933V-.93C-3.584-.571-3.674-.262-3.853 0Z"/>
<path transform="matrix(1,0,0,-1,40.9142,144.3967)" d="M0 0C.07 .332 .105 .674 .105 1.025 .105 1.53 .03 1.976-.12 2.362-.27 2.749-.489 3.079-.776 3.354-1 3.565-1.254 3.725-1.539 3.833-1.823 3.942-2.103 3.996-2.377 3.996-2.703 3.996-2.991 3.93-3.24 3.795-3.489 3.661-3.653 3.486-3.733 3.272-3.813 3.059-3.874 2.847-3.916 2.636-3.957 2.425-3.978 2.169-3.978 1.868V1.614C-3.978 1.534-3.971 1.44-3.958 1.332-3.901 .82-3.771 .388-3.57 .033-3.369-.321-3.096-.617-2.751-.854-2.515-1.014-2.288-1.128-2.07-1.198-1.853-1.269-1.636-1.304-1.418-1.304-1.125-1.304-.869-1.238-.652-1.107-.435-.977-.278-.799-.182-.575-.112-.403-.051-.211 0 0M1.409 2.434C1.524 2.038 1.582 1.654 1.582 1.284 1.582 .491 1.343-.213 .867-.829 .391-1.446-.237-1.854-1.016-2.052-1.349-2.135-1.684-2.176-2.022-2.176-2.847-2.176-3.565-1.929-4.179-1.434-4.792-.938-5.188-.278-5.368 .546-5.432 .802-5.463 1.073-5.463 1.36-5.463 2.383-5.133 3.228-4.471 3.896-3.81 4.563-2.984 4.897-1.994 4.897-1.687 4.897-1.371 4.859-1.045 4.782-.451 4.648 .062 4.375 .494 3.963 .925 3.551 1.23 3.041 1.409 2.434"/>
<path transform="matrix(1,0,0,-1,49.0515,139.5862)" d="M0 0-.096-.162C-.211-.405-.269-.661-.269-.93V-5.933C-.269-6.303-.186-6.626-.019-6.9H-1.735C-1.671-6.747-1.639-6.581-1.639-6.402V-6.229C-1.856-6.44-2.126-6.616-2.449-6.757-2.771-6.897-3.109-6.968-3.46-6.968-4.003-6.968-4.471-6.803-4.864-6.474-5.257-6.145-5.489-5.719-5.559-5.194-5.572-5.099-5.582-5.004-5.588-4.911-5.594-4.819-5.598-4.712-5.598-4.591V-.92C-5.598-.581-5.69-.274-5.875 0H-3.911C-3.981-.114-4.035-.227-4.074-.335-4.144-.533-4.179-.728-4.179-.92V-4.83C-4.179-5.207-4.08-5.504-3.882-5.722-3.684-5.938-3.416-6.048-3.077-6.048-3.026-6.048-2.968-6.043-2.904-6.033-2.84-6.023-2.789-6.016-2.751-6.009-2.515-5.958-2.316-5.868-2.157-5.74-1.844-5.498-1.687-5.265-1.687-5.041V-.93C-1.687-.674-1.748-.418-1.869-.162L-1.965 0Z"/>
<path transform="matrix(1,0,0,-1,56.0866,139.5862)" d="M0 0-.086-.162C-.195-.412-.25-.667-.25-.93V-5.913C-.25-6.245-.214-6.521-.144-6.737L-.086-6.9H-1.572L-4.601-2.539V-5.933C-4.601-6.297-4.515-6.619-4.342-6.9H-6.221C-6.131-6.772-6.066-6.631-6.024-6.474-5.982-6.317-5.962-6.137-5.962-5.933V-.833L-6.422 0H-4.852L-4.813-.163C-4.75-.387-4.657-.589-4.536-.768L-1.591-4.957V-.92C-1.591-.639-1.649-.387-1.764-.163L-1.869 0Z"/>
<path transform="matrix(1,0,0,-1,60.7346,143.0745)" d="M0 0C0 .748-.163 1.34-.489 1.778-.814 2.216-1.274 2.502-1.869 2.636L-2.137 2.674V-2.636L-1.85-2.598C-1.262-2.489-.807-2.209-.484-1.759-.161-1.309 0-.722 0 0M1.486 .048C1.486-.933 1.2-1.731 .628-2.351 .056-2.969-.738-3.322-1.754-3.412H-2.204-3.833C-3.642-3.163-3.546-2.84-3.546-2.444V2.568C-3.546 2.914-3.642 3.221-3.833 3.488H-2.271L-1.811 3.46C-.763 3.325 .048 2.957 .623 2.354 1.198 1.752 1.486 .983 1.486 .048"/>
<path transform="matrix(1,0,0,-1,66.4855,143.4583)" d="M0 0-.719 2.387-1.528 .002ZM2.665-3.028H.671C.684-2.978 .69-2.923 .69-2.866V-2.732C.69-2.637 .685-2.539 .676-2.437 .666-2.335 .636-2.214 .584-2.074L.191-.938H-1.706L-2.099-1.94C-2.188-2.176-2.233-2.431-2.233-2.704L-2.205-3.028H-4.208C-3.869-2.658-3.594-2.214-3.383-1.696L-1.495 2.972C-1.47 3.042-1.438 3.136-1.399 3.254-1.361 3.372-1.329 3.482-1.304 3.585L-1.265 3.729-1.236 3.872H.029L.058 3.729 .086 3.575 .259 2.972 1.888-1.581C2.054-2.035 2.278-2.466 2.559-2.875Z"/>
<path transform="matrix(1,0,0,-1,74.0764,139.5862)" d="M0 0-.345-1.197C-.511-1.121-.698-1.054-.906-.996-1.114-.938-1.31-.897-1.495-.872L-1.946-.843V-5.923C-1.946-6.325-1.853-6.651-1.668-6.9H-3.642L-3.537-6.747C-3.492-6.67-3.452-6.576-3.417-6.464-3.382-6.353-3.364-6.175-3.364-5.933V-.872C-3.908-.872-4.403-.961-4.85-1.14-5.016-1.204-5.169-1.277-5.31-1.36L-4.907 0Z"/>
<path transform="matrix(1,0,0,-1,76.3288,139.5862)" d="M0 0-.096-.162C-.23-.425-.297-.684-.297-.938V-5.933C-.297-6.297-.202-6.619-.01-6.9H-2.003C-1.805-6.626-1.706-6.303-1.706-5.933V-.93C-1.706-.565-1.805-.255-2.003 0Z"/>
<path transform="matrix(1,0,0,-1,82.4816,144.3967)" d="M0 0C.07 .332 .105 .674 .105 1.025 .105 1.53 .03 1.976-.12 2.362-.27 2.749-.489 3.079-.776 3.354-1 3.565-1.254 3.725-1.539 3.833-1.823 3.942-2.103 3.996-2.377 3.996-2.703 3.996-2.991 3.93-3.24 3.795-3.489 3.661-3.653 3.486-3.733 3.272-3.813 3.059-3.874 2.847-3.916 2.636-3.957 2.425-3.978 2.169-3.978 1.868V1.614C-3.978 1.534-3.971 1.44-3.958 1.332-3.901 .82-3.771 .388-3.57 .033-3.369-.321-3.096-.617-2.751-.854-2.515-1.014-2.288-1.128-2.07-1.198-1.853-1.269-1.636-1.304-1.418-1.304-1.125-1.304-.869-1.238-.652-1.107-.435-.977-.278-.799-.182-.575-.112-.403-.051-.211 0 0M1.409 2.434C1.524 2.038 1.582 1.654 1.582 1.284 1.582 .491 1.343-.213 .867-.829 .391-1.446-.237-1.854-1.016-2.052-1.349-2.135-1.684-2.176-2.022-2.176-2.847-2.176-3.565-1.929-4.179-1.434-4.792-.938-5.188-.278-5.368 .546-5.432 .802-5.463 1.073-5.463 1.36-5.463 2.383-5.133 3.228-4.471 3.896-3.81 4.563-2.984 4.897-1.994 4.897-1.687 4.897-1.371 4.859-1.045 4.782-.451 4.648 .062 4.375 .494 3.963 .925 3.551 1.23 3.041 1.409 2.434"/>
<path transform="matrix(1,0,0,-1,91.0109,139.5862)" d="M0 0-.086-.162C-.193-.412-.248-.667-.248-.93V-5.913C-.248-6.245-.213-6.521-.143-6.737L-.086-6.9H-1.57L-4.6-2.539V-5.933C-4.6-6.297-4.514-6.619-4.342-6.9H-6.22C-6.13-6.772-6.065-6.631-6.023-6.474-5.981-6.317-5.961-6.137-5.961-5.933V-.833L-6.421 0H-4.851L-4.812-.163C-4.749-.387-4.656-.589-4.535-.768L-1.59-4.957V-.92C-1.59-.639-1.648-.387-1.764-.163L-1.869 0Z"/>
<path transform="matrix(1,0,0,-1,100.1076,144.7425)" d="M0 0-.191-1.36-.393-1.457C-.726-1.591-1.037-1.684-1.327-1.734-1.618-1.785-1.897-1.812-2.166-1.812-3.035-1.812-3.769-1.568-4.366-1.083-4.963-.598-5.345 .064-5.511 .901-5.568 1.183-5.598 1.45-5.598 1.706-5.598 2.709-5.244 3.548-4.538 4.223-3.832 4.896-2.945 5.233-1.879 5.233-1.636 5.233-1.39 5.214-1.141 5.176-.892 5.138-.668 5.086-.47 5.022L-.096 4.897-.058 3.499C-.166 3.646-.307 3.796-.479 3.949-.92 4.326-1.396 4.515-1.907 4.515-2.31 4.515-2.681 4.394-3.02 4.15-3.358 3.907-3.618 3.56-3.801 3.105-3.982 2.652-4.073 2.179-4.073 1.687-4.073 1.47-4.058 1.262-4.025 1.064-3.993 .866-3.939 .668-3.862 .47-3.684 .01-3.414-.348-3.053-.604-2.691-.859-2.291-.987-1.85-.987-1.345-.987-.885-.817-.47-.479-.291-.339-.134-.179 0 0"/>
<path transform="matrix(1,0,0,-1,106.0881,144.3967)" d="M0 0C.07 .332 .105 .674 .105 1.025 .105 1.53 .03 1.976-.119 2.362-.27 2.749-.488 3.079-.776 3.354-1 3.565-1.254 3.725-1.538 3.833-1.822 3.942-2.102 3.996-2.377 3.996-2.702 3.996-2.99 3.93-3.239 3.795-3.488 3.661-3.653 3.486-3.732 3.272-3.813 3.059-3.873 2.847-3.915 2.636-3.957 2.425-3.978 2.169-3.978 1.868V1.614C-3.978 1.534-3.971 1.44-3.958 1.332-3.9 .82-3.771 .388-3.57 .033-3.368-.321-3.096-.617-2.75-.854-2.514-1.014-2.287-1.128-2.07-1.198-1.853-1.269-1.636-1.304-1.418-1.304-1.124-1.304-.869-1.238-.651-1.107-.435-.977-.277-.799-.182-.575-.111-.403-.051-.211 0 0M1.409 2.434C1.524 2.038 1.582 1.654 1.582 1.284 1.582 .491 1.344-.213 .868-.829 .392-1.446-.236-1.854-1.016-2.052-1.348-2.135-1.684-2.176-2.022-2.176-2.847-2.176-3.565-1.929-4.179-1.434-4.792-.938-5.188-.278-5.367 .546-5.431 .802-5.463 1.073-5.463 1.36-5.463 2.383-5.132 3.228-4.471 3.896-3.81 4.563-2.983 4.897-1.993 4.897-1.687 4.897-1.37 4.859-1.044 4.782-.45 4.648 .062 4.375 .494 3.963 .925 3.551 1.23 3.041 1.409 2.434"/>
<path transform="matrix(1,0,0,-1,109.3947,146.38109)" d="M0 0C-.141-.141-.312-.211-.518-.211-.722-.211-.896-.143-1.04-.005-1.184 .133-1.255 .307-1.255 .518-1.255 .722-1.185 .897-1.044 1.045-.904 1.191-.729 1.265-.518 1.265-.307 1.265-.134 1.191 0 1.045 .147 .904 .221 .729 .221 .518 .221 .312 .147 .141 0 0"/>
<path transform="matrix(1,0,0,-1,114.0812,145.12529)" d="M0 0-.432-1.361H-3.863C-3.761-1.24-3.688-1.105-3.647-.959-3.605-.812-3.585-.62-3.585-.384V4.609C-3.585 4.986-3.678 5.297-3.863 5.539H-1.889L-1.965 5.396C-2.1 5.102-2.166 4.84-2.166 4.609V-.422C-1.745-.422-1.361-.392-1.017-.331-.671-.271-.333-.16 0 0"/>
<path transform="matrix(1,0,0,-1,116.3244,139.5862)" d="M0 0-.096-.162C-.23-.425-.297-.684-.297-.938V-5.933C-.297-6.297-.201-6.619-.01-6.9H-2.003C-1.806-6.626-1.706-6.303-1.706-5.933V-.93C-1.706-.565-1.806-.255-2.003 0Z"/>
<path transform="matrix(1,0,0,-1,124.5568,139.5862)" d="M0 0-.536-.68V-5.933C-.536-6.169-.515-6.357-.47-6.498-.425-6.639-.349-6.772-.239-6.9H-2.146C-2.038-6.772-1.967-6.644-1.932-6.513-1.896-6.382-1.879-6.188-1.879-5.933V-2.294L-3.846-4.705-5.827-2.269V-5.922C-5.827-6.312-5.734-6.639-5.55-6.9H-7.466C-7.352-6.767-7.273-6.632-7.231-6.498-7.189-6.363-7.169-6.172-7.169-5.923V-.689L-7.706 0H-6.048C-6.054-.031-6.058-.073-6.058-.124-6.058-.227-6.01-.342-5.913-.469L-3.853-3.019-1.78-.462-1.689-.333-1.668-.307C-1.629-.236-1.61-.134-1.61 0Z"/>
<path transform="matrix(1,0,0,-1,127.0871,139.5862)" d="M0 0-.096-.162C-.23-.425-.297-.684-.297-.938V-5.933C-.297-6.297-.201-6.619-.01-6.9H-2.003C-1.806-6.626-1.706-6.303-1.706-5.933V-.93C-1.706-.565-1.806-.255-2.003 0Z"/>
<path transform="matrix(1,0,0,-1,132.6467,139.5862)" d="M0 0-.345-1.197C-.512-1.121-.698-1.054-.906-.996-1.113-.938-1.311-.897-1.495-.872L-1.945-.843V-5.923C-1.945-6.325-1.854-6.651-1.668-6.9H-3.643L-3.537-6.747C-3.492-6.67-3.452-6.576-3.417-6.464-3.382-6.353-3.364-6.175-3.364-5.933V-.872C-3.907-.872-4.402-.961-4.85-1.14-5.017-1.204-5.17-1.277-5.31-1.36L-4.907 0Z"/>
<path transform="matrix(1,0,0,-1,137.1506,145.18289)" d="M0 0-.613-1.304H-4.246C-4.054-1.035-3.958-.713-3.958-.336V4.658C-3.958 5.009-4.051 5.322-4.236 5.597H-.374L-.91 4.418C-1.179 4.501-1.447 4.566-1.716 4.614-1.983 4.663-2.262 4.687-2.549 4.687V2.684H-.661L-1.304 1.562-1.61 1.668C-1.904 1.75-2.217 1.808-2.549 1.84V-.402C-1.667-.402-.817-.269 0 0"/>
<path transform="matrix(1,0,0,-1,141.3674,143.0745)" d="M0 0C0 .748-.163 1.34-.488 1.778-.814 2.216-1.274 2.502-1.869 2.636L-2.137 2.674V-2.636L-1.85-2.598C-1.262-2.489-.807-2.209-.483-1.759-.161-1.309 0-.722 0 0M1.485 .048C1.485-.933 1.2-1.731 .628-2.351 .056-2.969-.737-3.322-1.754-3.412H-2.204-3.834C-3.642-3.163-3.546-2.84-3.546-2.444V2.568C-3.546 2.914-3.642 3.221-3.834 3.488H-2.271L-1.812 3.46C-.764 3.325 .048 2.957 .623 2.354 1.198 1.752 1.485 .983 1.485 .048"/>
<path transform="matrix(1,0,0,-1,145.5615,86.82449)" d="M0 0C-.099 .13-.192 .268-.286 .404-.194 .263-.111 .116-.023-.029-.016-.019-.008-.01 0 0" fill="#d40a41"/>
<path transform="matrix(1,0,0,-1,123.1972,85.565097)" d="M0 0C-.295-.142-.508-.24-.508-.24-1.247-.699-4.797-3.193-6.62-4.521-6.942-4.755-7.21-4.953-7.399-5.097-15.161-11.006-23.135-16.584-32.159-20.443-32.173-20.449-32.186-20.456-32.2-20.461-33.899-21.187-35.612-21.842-37.339-22.408-37.076-23.163-36.936-23.948-36.936-24.767V-25.946-44.005C-36.936-44.264-37.066-44.567-37.325-44.913-37.584-45.258-38.017-45.647-38.622-46.08-39.227-46.512-39.811-46.779-40.373-46.88-40.935-46.98-41.389-47.031-41.735-47.031-43.003-47.031-43.998-46.614-44.718-45.777-45.439-44.941-45.799-43.76-45.799-42.232V-27.222-24.767C-45.799-24.61-45.787-24.446-45.774-24.282-45.719-23.596-45.557-22.847-45.275-22.028-45.028-21.816-44.734-21.565-44.487-21.353-44.295-21.318-44.103-21.282-43.913-21.239-33.315-18.869-23.701-14.161-14.594-8.385-11.142-6.196-8.491-3.173-6.809 .613-3.922 7.111-7.175 12.391-12.226 15.186-13.053 15.644-14.025 15.796-14.957 15.635-17.375 15.216-17.571 14.764-16.803 12.434-15.522 8.547-16.025 4.768-17.663 1.146-18.082 .22-19.039-.735-19.975-1.102-22.45-2.075-25.063-2.116-27.578-1.105-31.566 .498-35.525 2.172-39.499 3.812-39.766 3.922-40.051 3.99-40.328 4.078-39.981 3.305-39.53 2.703-39.019 2.167-37.95 1.042-37.355-.491-37.589-2.026-37.99-4.665-39.485-6.6-41.419-8.259-42.799-9.443-43.504-9.441-44.605-8.01-48.08-3.491-51.097 1.319-53.324 6.586-54.349 9.011-54.202 11.279-52.517 13.494-51.39 14.976-50.188 16.592-50.874 18.743-50.054 18.886-49.336 18.997-48.624 19.139-46.202 19.621-44.847 20.773-44.69 23.209-44.554 25.317-44.943 27.466-45.171 29.589-45.273 30.549-45.684 31.487-45.717 32.443-45.84 36.009-44.127 38.912-42.264 41.781-39.331 46.295-35.02 47.518-30.014 46.983-25.285 46.479-21.76 43.624-18.721 40.339-13.666 34.875-13.712 26.596-19.21 21.632-20.006 20.913-20.091 20.072-19.74 19.091-19.481 18.366-19.114 18.127-18.43 18.55-16.931 19.476-15.871 18.468-14.698 17.763-13.572 17.086-12.369 16.536-10.922 15.787-11.032 16.427-11.025 16.533-11.068 16.613-11.205 16.872-11.34 17.135-11.511 17.372-14.437 21.434-15.357 25.824-14.432 30.756-13.979 33.173-13.775 35.644-14.023 38.092-14.932 47.071-19.794 53.639-27.238 58.102-34.461 62.433-42.117 62.545-49.75 59.046-51.373 58.303-52.765 57.056-54.263 56.041-54.184 55.919-54.104 55.797-54.025 55.674-53.834 55.685-53.637 55.67-53.452 55.709-50.427 56.346-48.582 55.564-47.06 52.9-46.43 51.797-45.884 50.642-45.366 49.481-44.587 47.739-43.995 45.847-41.426 45.817-42.867 44.608-44.373 44.563-45.452 45.945-46.541 47.341-47.269 49.031-48.07 50.634-48.57 51.633-48.812 52.767-49.352 53.74-50.088 55.068-51.302 55.469-52.735 54.934-54.934 54.114-56.813 52.849-57.275 50.365-57.675 48.212-58.272 45.96-58.005 43.85-57.557 40.315-58.49 37.41-60.515 34.638-61.566 33.201-61.341 32.818-59.853 31.857-59.276 31.485-58.572 30.799-58.531 30.214-58.44 28.944-57.823 28.542-56.753 28.61-55.619 28.682-54.493 28.888-53.363 29.035-53.288 28.915-53.214 28.795-53.139 28.675-54.273 28.016-55.389 27.322-56.547 26.708-57.962 25.958-58.312 25.135-57.854 23.704-57.678 23.151-57.624 22.565-57.707 21.99-57.945 20.343-57.628 19.705-56.085 19.181-55.544 18.997-54.982 18.873-54.429 18.722-54.376 18.597-54.322 18.472-54.269 18.347-54.943 17.987-55.592 17.562-56.297 17.282-57.38 16.852-58.581 16.665-59.594 16.12-62.17 14.734-63.528 12.329-63.166 10.058-62.906 8.426-62.636 6.795-62.318 5.174-61.971 5.547-61.685 5.897-61.618 6.015L-62.208 2.51C-62.21 2.512-62.214 2.516-62.216 2.518V2.502C-61.939 2.314-61.794 1.929-61.714 1.295-60.778-6.147-58.483-13.193-55.438-20.027-55.136-20.705-54.758-21.222-54.307-21.596-53.93-22.371-53.697-23.216-53.627-24.14-54.204-24.054-54.783-23.954-55.365-23.831-63.093-22.195-68.803-17.976-71.277-10.21-73.307-3.841-69.995 2.244-63.944 3.79-63.335 3.946-62.502 2.723-62.216 2.518V3.335C-62.073 3.586-62.075 3.93-62.178 4.423-62.229 4.672-62.27 4.924-62.318 5.174-62.793 4.665-63.388 4.114-63.735 4.05-67.692 3.318-70.491 1.058-71.903-2.762-73.731-7.709-72.483-12.264-69.768-16.45-65.822-22.533-60.177-25.58-53.581-26.718V-41.021C-53.581-44.365-52.723-47.009-51.008-48.955-49.294-50.9-47.038-51.872-44.242-51.872-43.896-51.872-43.536-51.857-43.162-51.829-42.787-51.801-42.455-51.757-42.167-51.7-40.035-51.354-38.19-50.461-36.634-49.02V-49.884C-36.634-50.115-36.677-50.389-36.763-50.706-36.849-51.023-36.936-51.311-37.022-51.57H-27.858L-28.247-50.835C-28.852-49.654-29.154-48.401-29.154-47.075V-24.81C-29.154-24.323-29.103-23.832-29.007-23.337-28.216-23.017-27.428-22.685-26.644-22.336-18.328-18.639-11.064-13.339-4-7.735-3.609-4.688-2.147-1.983 0 0" fill="#007a60"/>
<path transform="matrix(1,0,0,-1,60.9808,82.229999)" d="M0 0V-.817C.002-.819 .006-.823 .009-.825L.598 2.68C.531 2.562 .246 2.212-.102 1.839-.053 1.589-.013 1.337 .039 1.088 .141 .595 .143 .251 0 0" fill="#007a60"/>
<path transform="matrix(1,0,0,-1,129.0654,82.35709)" d="M0 0C1.861 .964 1.689 1.408 7.339 1.367 7.345 1.365 7.35 1.361 7.356 1.359 8.22 1.065 8.868 .816 9.49 .533 10.282 .174 11.057-.224 11.81-.658 13.418-1.583 14.635-2.469 15.868-3.594 15.882-3.61 15.896-3.625 15.91-3.641 16.009-3.783 16.111-3.922 16.21-4.064 13.927-.6 10.008 1.689 5.549 1.689 2.782 1.689 .228 .8-1.863-.696-1.442-.532-1.011-.392-.571-.272-.377-.185-.187-.097 0 0" fill="#007a60"/>
<path transform="matrix(1,0,0,-1,144.9337,85.951)" d="M0 0C-1.233 1.124-2.45 2.011-4.058 2.936-4.812 3.37-5.586 3.767-6.378 4.127-7.001 4.41-7.649 4.659-8.512 4.953-8.518 4.955-8.523 4.958-8.529 4.961-14.179 5.002-14.007 4.558-15.868 3.594-16.056 3.497-16.246 3.409-16.439 3.322-15.369 3.613-14.25 3.782-13.088 3.782-10.376 3.782-7.866 2.93-5.799 1.488-4.337 1.163-2.907 .618-1.56-.152-.927-.514-.288-.864 .347-1.221 .433-1.115 .518-1.009 .604-.903 .517-.758 .434-.611 .341-.47 .242-.328 .141-.189 .042-.047 .028-.032 .014-.016 0 0" fill="#007a60"/>
<path transform="matrix(1,0,0,-1,126.437,83.63529)" d="M0 0C.246 .206 .505 .395 .766 .582-.728-.003-2.081-.86-3.24-1.93-2.692-1.667-1.851-1.246-1.481-.974-.92-.562-.437-.253 0 0" fill="#007a60"/>
<path transform="matrix(1,0,0,-1,122.0889,90.99339)" d="M0 0C.569 2.936 2.14 5.513 4.348 7.358 3.911 7.105 3.428 6.796 2.867 6.384 2.497 6.112 1.656 5.691 1.108 5.428-1.039 3.445-2.501 .741-2.891-2.306-2.154-1.721-1.416-1.135-.682-.545-.455-.363-.227-.182 0 0" fill="#007a60"/>
<path transform="matrix(1,0,0,-1,128.4948,82.62889)" d="M0 0C-.441-.12-.872-.26-1.292-.424-1.553-.611-1.812-.801-2.058-1.006-1.234-.529-.591-.266 0 0" fill="#007a60"/>
<path transform="matrix(1,0,0,-1,128.4948,82.62889)" d="M0 0C-.591-.266-1.234-.529-2.058-1.006-4.266-2.851-5.837-5.428-6.406-8.365-4.846-7.11-3.288-5.852-1.714-4.616 1.843-1.821 6.378-.886 10.64-1.834 8.573-.392 6.063 .46 3.351 .46 2.189 .46 1.07 .291 0 0" fill="#007a60"/>
</g>
</g>
</svg>
